<svg width="20" height="20" viewBox="0 0 20 20" fill="none" xmlns="http://www.w3.org/2000/svg">
<path d="M11.9966 8.48594L8.71831 5.20769C8.58449 5.07467 8.40347 5 8.21479 5C8.0261 5 7.84508 5.07467 7.71126 5.20769C7.64432 5.27408 7.59119 5.35308 7.55493 5.44011C7.51867 5.52715 7.5 5.6205 7.5 5.71478C7.5 5.80907 7.51867 5.90242 7.55493 5.98945C7.59119 6.07649 7.64432 6.15548 7.71126 6.22188L10.9967 9.49299C11.0636 9.55938 11.1167 9.63838 11.153 9.72541C11.1893 9.81244 11.2079 9.9058 11.2079 10.0001C11.2079 10.0944 11.1893 10.1877 11.153 10.2748C11.1167 10.3618 11.0636 10.4408 10.9967 10.5072L7.71126 13.7783C7.57677 13.9118 7.50084 14.0933 7.50017 14.2829C7.4995 14.4724 7.57415 14.6544 7.70769 14.7889C7.84124 14.9234 8.02273 14.9993 8.21226 15C8.40179 15.0007 8.58382 14.926 8.71831 14.7925L11.9966 11.5142C12.3978 11.1125 12.6232 10.5679 12.6232 10.0001C12.6232 9.43228 12.3978 8.88769 11.9966 8.48594V8.48594Z" fill="#ADB5BD"/>
</svg>
