<svg width="20" height="20" viewBox="0 0 20 20" fill="none" xmlns="http://www.w3.org/2000/svg">
<path d="M9.13373 10.5074C9.06679 10.441 9.01365 10.362 8.97739 10.275C8.94113 10.1879 8.92246 10.0946 8.92246 10.0003C8.92246 9.90599 8.94113 9.81263 8.97739 9.7256C9.01365 9.63856 9.06679 9.55956 9.13373 9.49316L12.4121 6.22192C12.4791 6.15553 12.5322 6.07653 12.5685 5.98949C12.6047 5.90246 12.6234 5.8091 12.6234 5.71481C12.6234 5.62052 12.6047 5.52717 12.5685 5.44013C12.5322 5.35309 12.4791 5.2741 12.4121 5.2077C12.2783 5.07467 12.0973 5 11.9086 5C11.7199 5 11.5389 5.07467 11.405 5.2077L8.12665 8.48608C7.72539 8.88784 7.5 9.43245 7.5 10.0003C7.5 10.5681 7.72539 11.1127 8.12665 11.5145L11.405 14.7929C11.5381 14.9248 11.7176 14.9992 11.905 15C11.999 15.0005 12.0922 14.9825 12.1792 14.947C12.2662 14.9114 12.3454 14.8591 12.4121 14.7929C12.4791 14.7265 12.5322 14.6475 12.5685 14.5604C12.6047 14.4734 12.6234 14.38 12.6234 14.2857C12.6234 14.1915 12.6047 14.0981 12.5685 14.0111C12.5322 13.924 12.4791 13.845 12.4121 13.7786L9.13373 10.5074Z" fill="#ADB5BD"/>
</svg>
