<svg width="24" height="24" viewBox="0 0 24 24" fill="none" xmlns="http://www.w3.org/2000/svg">
<path d="M17.7508 9.25351C17.6711 9.17318 17.5763 9.10942 17.4719 9.06591C17.3674 9.0224 17.2554 9 17.1423 9C17.0291 9 16.9171 9.0224 16.8127 9.06591C16.7082 9.10942 16.6134 9.17318 16.5338 9.25351L12.6085 13.1788C12.5288 13.2591 12.434 13.3229 12.3296 13.3664C12.2252 13.4099 12.1131 13.4323 12 13.4323C11.8869 13.4323 11.7748 13.4099 11.6704 13.3664C11.566 13.3229 11.4712 13.2591 11.3915 13.1788L7.46623 9.25351C7.38655 9.17318 7.29176 9.10942 7.18732 9.06591C7.08289 9.0224 6.97087 9 6.85772 9C6.74458 9 6.63256 9.0224 6.52813 9.06591C6.42369 9.10942 6.3289 9.17318 6.24922 9.25351C6.0896 9.41409 6 9.63131 6 9.85773C6 10.0841 6.0896 10.3014 6.24922 10.4619L10.1831 14.3958C10.6652 14.8773 11.3186 15.1477 12 15.1477C12.6814 15.1477 13.3348 14.8773 13.8169 14.3958L17.7508 10.4619C17.9104 10.3014 18 10.0841 18 9.85773C18 9.63131 17.9104 9.41409 17.7508 9.25351Z" fill="#495057"/>
</svg>
