<svg width="16" height="16" viewBox="0 0 16 16" fill="none" xmlns="http://www.w3.org/2000/svg">
<path d="M3.5995 13.8801C3.87496 13.9978 4.1795 14.0298 4.4734 13.9718C4.76731 13.9139 5.03692 13.7687 5.24707 13.5552L8.21584 10.6026L11.1846 13.5552C11.323 13.6957 11.4879 13.8073 11.6698 13.8836C11.8516 13.9598 12.0468 13.9993 12.244 13.9997C12.4467 13.9991 12.6473 13.9584 12.8342 13.8801C13.1119 13.7677 13.3493 13.5742 13.5153 13.3248C13.6814 13.0755 13.7683 12.7818 13.7649 12.4822V4.52232C13.7641 3.8536 13.4981 3.21251 13.0253 2.73965C12.5524 2.2668 11.9113 2.0008 11.2426 2L5.18906 2C4.52035 2.0008 3.87925 2.2668 3.4064 2.73965C2.93355 3.21251 2.66755 3.8536 2.66674 4.52232V12.4822C2.66349 12.782 2.75078 13.0759 2.91719 13.3253C3.08361 13.5747 3.32141 13.768 3.5995 13.8801Z" fill="#DEE2E5"/>
</svg>
