<svg width="24" height="24" viewBox="0 0 24 24" fill="none" xmlns="http://www.w3.org/2000/svg">
<path d="M20.0675 15.1485L18.1182 8.12287C17.702 6.62 16.795 5.29954 15.5417 4.37165C14.2883 3.44377 12.7606 2.96177 11.2017 3.00237C9.64278 3.04298 8.14224 3.60385 6.93889 4.59573C5.73555 5.5876 4.89855 6.95349 4.56111 8.47598L3.05343 15.2609C2.98047 15.5896 2.98225 15.9305 3.05863 16.2584C3.13501 16.5864 3.28405 16.893 3.49474 17.1556C3.70542 17.4182 3.97239 17.6302 4.27595 17.7759C4.5795 17.9216 4.91189 17.9973 5.2486 17.9974H7.95282C8.12489 18.8448 8.58463 19.6066 9.25413 20.1538C9.92364 20.7011 10.7617 21 11.6264 21C12.4911 21 13.3292 20.7011 13.9987 20.1538C14.6682 19.6066 15.128 18.8448 15.3 17.9974H17.9016C18.248 17.9972 18.5897 17.917 18.9001 17.7631C19.2104 17.6091 19.481 17.3855 19.6908 17.1097C19.9005 16.834 20.0437 16.5135 20.1091 16.1733C20.1746 15.8331 20.1606 15.4824 20.0682 15.1485H20.0675ZM11.6264 19.4968C11.1629 19.4949 10.7113 19.3498 10.3334 19.0814C9.95549 18.813 9.66973 18.4344 9.51523 17.9974H13.7376C13.5831 18.4344 13.2974 18.813 12.9195 19.0814C12.5416 19.3498 12.0899 19.4949 11.6264 19.4968ZM18.4976 16.2018C18.4276 16.2945 18.337 16.3696 18.2328 16.421C18.1287 16.4725 18.0139 16.4988 17.8978 16.4979H5.2486C5.13633 16.4979 5.02551 16.4727 4.9243 16.4241C4.8231 16.3755 4.73409 16.3049 4.66386 16.2173C4.59362 16.1297 4.54395 16.0275 4.51851 15.9181C4.49307 15.8088 4.49251 15.6951 4.51687 15.5855L6.02455 8.80061C6.29022 7.60572 6.94768 6.53392 7.89244 5.7556C8.83719 4.97728 10.015 4.5371 11.2387 4.50505C12.4623 4.47299 13.6616 4.8509 14.6458 5.57868C15.63 6.30647 16.3427 7.34237 16.6705 8.52172L18.6198 15.5473C18.6516 15.6584 18.6571 15.7754 18.6359 15.889C18.6147 16.0026 18.5673 16.1097 18.4976 16.2018Z" fill="#495057"/>
</svg>
