<svg width="32" height="32" viewBox="0 0 32 32" fill="none" xmlns="http://www.w3.org/2000/svg">
<path d="M24.4676 27.9965C24.0977 27.9955 23.7317 27.9212 23.3907 27.7779C23.0497 27.6346 22.7405 27.4252 22.4809 27.1616L16.3318 21.0485L10.1827 27.1656C9.78776 27.5663 9.28129 27.8387 8.7293 27.9473C8.17731 28.0559 7.6054 27.9957 7.08812 27.7746C6.56571 27.5644 6.11881 27.2017 5.80577 26.7336C5.49272 26.2656 5.32809 25.714 5.33338 25.1509V8.99928C5.33338 7.67339 5.86008 6.4018 6.79763 5.46425C7.73518 4.52671 9.00676 4 10.3327 4L22.3309 4C22.9874 4 23.6375 4.12931 24.2441 4.38055C24.8506 4.63178 25.4017 5.00003 25.8659 5.46425C26.3302 5.92848 26.6984 6.4796 26.9496 7.08614C27.2009 7.69268 27.3302 8.34276 27.3302 8.99928V25.1509C27.3358 25.7135 27.1717 26.2648 26.8595 26.7328C26.5472 27.2008 26.1011 27.5638 25.5794 27.7746C25.2273 27.9218 24.8493 27.9973 24.4676 27.9965ZM10.3327 5.99971C9.53712 5.99971 8.77417 6.31574 8.21164 6.87826C7.64911 7.44079 7.33309 8.20374 7.33309 8.99928V25.1509C7.33272 25.3175 7.38175 25.4805 7.47397 25.6193C7.56618 25.758 7.69745 25.8664 7.8512 25.9306C8.00495 25.9948 8.17427 26.0119 8.33778 25.98C8.50129 25.948 8.65165 25.8682 8.76988 25.7508L15.6319 18.9308C15.8192 18.7446 16.0726 18.6401 16.3368 18.6401C16.6009 18.6401 16.8543 18.7446 17.0417 18.9308L23.8957 25.7489C24.0139 25.8662 24.1643 25.946 24.3278 25.978C24.4913 26.0099 24.6606 25.9928 24.8144 25.9286C24.9681 25.8644 25.0994 25.756 25.1916 25.6173C25.2838 25.4785 25.3328 25.3155 25.3325 25.1489V8.99928C25.3325 8.20374 25.0165 7.44079 24.4539 6.87826C23.8914 6.31574 23.1284 5.99971 22.3329 5.99971H10.3327Z" fill="#495057"/>
</svg>
