<svg width="20" height="20" viewBox="0 0 20 20" fill="none" xmlns="http://www.w3.org/2000/svg">
<path d="M16.504 3.49567C16.3999 3.39152 16.2586 3.33301 16.1113 3.33301C15.9639 3.33301 15.8227 3.39152 15.7185 3.49567L10 9.2141L4.28161 3.49567C4.17742 3.39152 4.03614 3.33301 3.88882 3.33301C3.7415 3.33301 3.60022 3.39152 3.49604 3.49567C3.39188 3.59985 3.33337 3.74114 3.33337 3.88845C3.33337 4.03577 3.39188 4.17706 3.49604 4.28124L9.21447 9.99967L3.49604 15.7181C3.39188 15.8223 3.33337 15.9636 3.33337 16.1109C3.33337 16.2582 3.39188 16.3995 3.49604 16.5037C3.60022 16.6078 3.7415 16.6663 3.88882 16.6663C4.03614 16.6663 4.17742 16.6078 4.28161 16.5037L10 10.7852L15.7185 16.5037C15.8227 16.6078 15.9639 16.6663 16.1113 16.6663C16.2586 16.6663 16.3999 16.6078 16.504 16.5037C16.6082 16.3995 16.6667 16.2582 16.6667 16.1109C16.6667 15.9636 16.6082 15.8223 16.504 15.7181L10.7856 9.99967L16.504 4.28124C16.6082 4.17706 16.6667 4.03577 16.6667 3.88845C16.6667 3.74114 16.6082 3.59985 16.504 3.49567Z" fill="#495057"/>
</svg>
