<svg width="24" height="24" viewBox="0 0 24 24" fill="none" xmlns="http://www.w3.org/2000/svg">
<path d="M18 3H6C5.20435 3 4.44129 3.31607 3.87868 3.87868C3.31607 4.44129 3 5.20435 3 6L3 15C3 15.7956 3.31607 16.5587 3.87868 17.1213C4.44129 17.6839 5.20435 18 6 18H8.175L11.5133 20.8223C11.6487 20.9369 11.8203 20.9997 11.9977 20.9997C12.1752 20.9997 12.3468 20.9369 12.4823 20.8223L15.825 18H18C18.7956 18 19.5587 17.6839 20.1213 17.1213C20.6839 16.5587 21 15.7956 21 15V6C21 5.20435 20.6839 4.44129 20.1213 3.87868C19.5587 3.31607 18.7956 3 18 3ZM19.5 15C19.5 15.3978 19.342 15.7794 19.0607 16.0607C18.7794 16.342 18.3978 16.5 18 16.5H15.825C15.4705 16.5001 15.1274 16.6258 14.8568 16.8547L12 19.2675L9.14475 16.8547C8.87367 16.6255 8.53005 16.4998 8.175 16.5H6C5.60218 16.5 5.22064 16.342 4.93934 16.0607C4.65804 15.7794 4.5 15.3978 4.5 15V6C4.5 5.60218 4.65804 5.22064 4.93934 4.93934C5.22064 4.65804 5.60218 4.5 6 4.5H18C18.3978 4.5 18.7794 4.65804 19.0607 4.93934C19.342 5.22064 19.5 5.60218 19.5 6V15Z" fill="#858E96"/>
<path d="M8.25 8.25H12C12.1989 8.25 12.3897 8.17098 12.5303 8.03033C12.671 7.88968 12.75 7.69891 12.75 7.5C12.75 7.30109 12.671 7.11032 12.5303 6.96967C12.3897 6.82902 12.1989 6.75 12 6.75H8.25C8.05109 6.75 7.86032 6.82902 7.71967 6.96967C7.57902 7.11032 7.5 7.30109 7.5 7.5C7.5 7.69891 7.57902 7.88968 7.71967 8.03033C7.86032 8.17098 8.05109 8.25 8.25 8.25Z" fill="#858E96"/>
<path d="M15.75 9.75H8.25C8.05109 9.75 7.86032 9.82902 7.71967 9.96967C7.57902 10.1103 7.5 10.3011 7.5 10.5C7.5 10.6989 7.57902 10.8897 7.71967 11.0303C7.86032 11.171 8.05109 11.25 8.25 11.25H15.75C15.9489 11.25 16.1397 11.171 16.2803 11.0303C16.421 10.8897 16.5 10.6989 16.5 10.5C16.5 10.3011 16.421 10.1103 16.2803 9.96967C16.1397 9.82902 15.9489 9.75 15.75 9.75Z" fill="#858E96"/>
<path d="M15.75 12.75H8.25C8.05109 12.75 7.86032 12.829 7.71967 12.9697C7.57902 13.1103 7.5 13.3011 7.5 13.5C7.5 13.6989 7.57902 13.8897 7.71967 14.0303C7.86032 14.171 8.05109 14.25 8.25 14.25H15.75C15.9489 14.25 16.1397 14.171 16.2803 14.0303C16.421 13.8897 16.5 13.6989 16.5 13.5C16.5 13.3011 16.421 13.1103 16.2803 12.9697C16.1397 12.829 15.9489 12.75 15.75 12.75Z" fill="#858E96"/>
</svg>
