<svg width="20" height="20" viewBox="0 0 20 20" fill="none" xmlns="http://www.w3.org/2000/svg">
<path d="M10 2.5C5.85786 2.5 2.5 5.85786 2.5 10C2.5 14.1421 5.85786 17.5 10 17.5C14.1421 17.5 17.5 14.1421 17.5 10C17.4955 5.85971 14.1403 2.50448 10 2.5ZM12.5 11.6169C12.754 11.8506 12.7704 12.246 12.5366 12.5C12.3029 12.754 11.9075 12.7704 11.6535 12.5366C11.6408 12.5249 11.6286 12.5127 11.6169 12.5L10 10.8837L8.38375 12.5C8.13546 12.7398 7.7398 12.7329 7.50001 12.4846C7.2661 12.2424 7.2661 11.8584 7.50001 11.6163L9.11626 10L7.50001 8.38375C7.26022 8.13546 7.2671 7.7398 7.51539 7.50001C7.75759 7.2661 8.14155 7.2661 8.38375 7.50001L10 9.11626L11.6169 7.50001C11.8506 7.24604 12.246 7.22963 12.5 7.46339C12.754 7.69715 12.7704 8.09254 12.5366 8.34651C12.5249 8.35923 12.5127 8.37142 12.5 8.38313L10.8837 10L12.5 11.6169Z" fill="#CED4DA"/>
</svg>
