<svg width="20" height="20" viewBox="0 0 20 20" fill="none" xmlns="http://www.w3.org/2000/svg">
<path d="M9.35134 14.8782C9.16625 14.8774 8.98888 14.8039 8.85746 14.6736L5.61902 11.4351C5.22264 11.0382 5 10.5003 5 9.93936C5 9.37845 5.22264 8.84048 5.61902 8.44361L8.85746 5.20517C8.98965 5.07376 9.16847 5 9.35487 5C9.54126 5 9.72008 5.07376 9.85228 5.20517C9.91841 5.27076 9.9709 5.34879 10.0067 5.43477C10.0425 5.52074 10.061 5.61296 10.061 5.7061C10.061 5.79924 10.0425 5.89146 10.0067 5.97744C9.9709 6.06342 9.91841 6.14145 9.85228 6.20704L6.61383 9.43843C6.5477 9.50402 6.49521 9.58205 6.45939 9.66803C6.42358 9.754 6.40513 9.84622 6.40513 9.93936C6.40513 10.0325 6.42358 10.1247 6.45939 10.2107C6.49521 10.2967 6.5477 10.3747 6.61383 10.4403L9.85228 13.6717C9.91841 13.7373 9.9709 13.8153 10.0067 13.9013C10.0425 13.9873 10.061 14.0795 10.061 14.1726C10.061 14.2658 10.0425 14.358 10.0067 14.444C9.9709 14.5299 9.91841 14.608 9.85228 14.6736C9.78635 14.739 9.70817 14.7907 9.6222 14.8258C9.53624 14.8609 9.44419 14.8787 9.35134 14.8782Z" fill="#ADB5BD"/>
<path d="M14.2904 14.8782C14.1053 14.8774 13.9279 14.8039 13.7965 14.6736L9.56325 10.4403C9.49712 10.3747 9.44463 10.2967 9.40881 10.2107C9.373 10.1247 9.35455 10.0325 9.35455 9.93936C9.35455 9.84622 9.373 9.754 9.40881 9.66803C9.44463 9.58205 9.49712 9.50402 9.56325 9.43843L13.7965 5.20517C13.9287 5.07376 14.1075 5 14.2939 5C14.4803 5 14.6591 5.07376 14.7913 5.20517C14.8575 5.27076 14.9099 5.34879 14.9458 5.43477C14.9816 5.52074 15 5.61296 15 5.7061C15 5.79924 14.9816 5.89146 14.9458 5.97744C14.9099 6.06342 14.8575 6.14145 14.7913 6.20704L11.059 9.93936L14.7913 13.6717C14.8575 13.7373 14.9099 13.8153 14.9458 13.9013C14.9816 13.9873 15 14.0795 15 14.1726C15 14.2658 14.9816 14.358 14.9458 14.444C14.9099 14.5299 14.8575 14.608 14.7913 14.6736C14.7254 14.739 14.6472 14.7907 14.5613 14.8258C14.4753 14.8609 14.3832 14.8787 14.2904 14.8782Z" fill="#ADB5BD"/>
</svg>
