<svg width="20" height="20" viewBox="0 0 20 20" fill="none" xmlns="http://www.w3.org/2000/svg">
<path d="M10.6415 14.8784C10.502 14.8778 10.3657 14.8358 10.25 14.7578C10.1343 14.6798 10.0444 14.5693 9.9915 14.4401C9.93863 14.311 9.92525 14.1691 9.95304 14.0323C9.98082 13.8956 10.0485 13.7701 10.1476 13.6719L13.3932 10.4404C13.4593 10.3748 13.5118 10.2968 13.5476 10.2108C13.5834 10.1248 13.6019 10.0326 13.6019 9.93947C13.6019 9.84633 13.5834 9.75411 13.5476 9.66813C13.5118 9.58215 13.4593 9.50411 13.3932 9.43852L10.1476 6.20706C10.0815 6.14147 10.029 6.06344 9.99317 5.97746C9.95735 5.89148 9.93891 5.79926 9.93891 5.70612C9.93891 5.61298 9.95735 5.52076 9.99317 5.43478C10.029 5.3488 10.0815 5.27076 10.1476 5.20517C10.2798 5.07376 10.4586 5 10.645 5C10.8314 5 11.0103 5.07376 11.1425 5.20517L14.381 8.44368C14.7773 8.84056 15 9.37855 15 9.93947C15 10.5004 14.7773 11.0384 14.381 11.4353L11.1425 14.6738C11.0765 14.7392 10.9983 14.7909 10.9124 14.826C10.8264 14.8611 10.7344 14.8789 10.6415 14.8784Z" fill="#ADB5BD"/>
<path d="M5.7026 14.8784C5.56306 14.8778 5.42683 14.8358 5.31113 14.7578C5.19543 14.6798 5.10546 14.5693 5.05259 14.4401C4.99973 14.311 4.98634 14.1691 5.01413 14.0323C5.04192 13.8956 5.10963 13.7701 5.20871 13.6719L8.94111 9.93947L5.20871 6.20706C5.14258 6.14147 5.09009 6.06344 5.05427 5.97746C5.01845 5.89148 5.00001 5.79926 5.00001 5.70612C5.00001 5.61298 5.01845 5.52076 5.05427 5.43478C5.09009 5.3488 5.14258 5.27076 5.20871 5.20517C5.3409 5.07376 5.51973 5 5.70613 5C5.89253 5 6.07135 5.07376 6.20355 5.20517L10.4369 9.43852C10.503 9.50411 10.5555 9.58215 10.5913 9.66813C10.6272 9.75411 10.6456 9.84633 10.6456 9.93947C10.6456 10.0326 10.6272 10.1248 10.5913 10.2108C10.5555 10.2968 10.503 10.3748 10.4369 10.4404L6.20355 14.6738C6.13762 14.7392 6.05943 14.7909 5.97347 14.826C5.88751 14.8611 5.79546 14.8789 5.7026 14.8784Z" fill="#ADB5BD"/>
</svg>
