<svg width="24" height="24" viewBox="0 0 24 24" fill="none" xmlns="http://www.w3.org/2000/svg">
<path d="M16.1233 4C15.2791 4.01313 14.4534 4.24879 13.7294 4.68318C13.0054 5.11757 12.4089 5.7353 12 6.474C11.5911 5.7353 10.9946 5.11757 10.2706 4.68318C9.54665 4.24879 8.72086 4.01313 7.87666 4C6.53091 4.05847 5.263 4.64718 4.34992 5.63751C3.43685 6.62785 2.95284 7.9393 3.00363 9.28537C3.00363 12.6942 6.59168 16.4172 9.60097 18.9415C10.2729 19.5061 11.1224 19.8156 12 19.8156C12.8776 19.8156 13.7271 19.5061 14.399 18.9415C17.4083 16.4172 20.9964 12.6942 20.9964 9.28537C21.0472 7.9393 20.5632 6.62785 19.6501 5.63751C18.737 4.64718 17.4691 4.05847 16.1233 4Z" fill="#486FFA"/>
</svg>
