<svg width="24" height="24" viewBox="0 0 24 24" fill="none" xmlns="http://www.w3.org/2000/svg">
<path d="M16.1233 4C15.2791 4.01313 14.4534 4.24879 13.7294 4.68318C13.0054 5.11757 12.4089 5.7353 12 6.474C11.5911 5.7353 10.9946 5.11757 10.2706 4.68318C9.54665 4.24879 8.72086 4.01313 7.87666 4C6.53091 4.05847 5.263 4.64718 4.34992 5.63751C3.43685 6.62785 2.95284 7.9393 3.00363 9.28537C3.00363 12.6942 6.59168 16.4172 9.60097 18.9415C10.2729 19.5061 11.1224 19.8156 12 19.8156C12.8776 19.8156 13.7271 19.5061 14.399 18.9415C17.4083 16.4172 20.9964 12.6942 20.9964 9.28537C21.0472 7.9393 20.5632 6.62785 19.6501 5.63751C18.737 4.64718 17.4691 4.05847 16.1233 4ZM13.4357 17.7944C13.0338 18.1328 12.5254 18.3184 12 18.3184C11.4746 18.3184 10.9662 18.1328 10.5643 17.7944C6.71238 14.5625 4.50302 11.4617 4.50302 9.28537C4.45178 8.33679 4.77769 7.40642 5.40968 6.69719C6.04167 5.98795 6.92847 5.55738 7.87666 5.4994C8.82486 5.55738 9.71165 5.98795 10.3436 6.69719C10.9756 7.40642 11.3016 8.33679 11.2503 9.28537C11.2503 9.4842 11.3293 9.67489 11.4699 9.81548C11.6105 9.95608 11.8012 10.0351 12 10.0351C12.1988 10.0351 12.3895 9.95608 12.5301 9.81548C12.6707 9.67489 12.7497 9.4842 12.7497 9.28537C12.6984 8.33679 13.0244 7.40642 13.6564 6.69719C14.2883 5.98795 15.1751 5.55738 16.1233 5.4994C17.0715 5.55738 17.9583 5.98795 18.5903 6.69719C19.2223 7.40642 19.5482 8.33679 19.497 9.28537C19.497 11.4617 17.2876 14.5625 13.4357 17.7914V17.7944Z" fill="#858E96"/>
</svg>
