<svg width="14" height="14" viewBox="0 0 14 14" fill="none" xmlns="http://www.w3.org/2000/svg">
<path d="M5.32047 5.25029C5.06694 5.24668 4.8226 5.15477 4.62955 4.99037C4.22644 4.62074 3.98225 4.1093 3.94825 3.56345C3.84192 2.47214 4.43701 1.82891 5.07981 1.75715C5.23469 1.73987 5.39147 1.75399 5.54078 1.79864C5.69008 1.8433 5.82886 1.91759 5.94883 2.01706C6.12791 2.17843 6.2733 2.37362 6.37664 2.5914C6.47997 2.80918 6.5392 3.04526 6.55093 3.28602C6.64894 4.30251 6.10723 5.25029 5.32047 5.25029ZM2.99653 7.87572C2.76368 7.8704 2.54138 7.7776 2.37386 7.6158C2.00345 7.23014 1.78575 6.72305 1.76126 6.18888C1.66499 5.09757 2.20146 4.45434 2.78124 4.38258C2.92257 4.36643 3.06572 4.38133 3.2007 4.42622C3.33568 4.47111 3.45924 4.54492 3.56274 4.6425C3.89564 4.98298 4.08931 5.43556 4.10577 5.91146C4.19372 6.92794 3.65551 7.87572 2.99653 7.87572ZM8.67753 5.25029C7.88552 5.25029 7.34993 4.30251 7.44926 3.28471C7.46099 3.04394 7.52022 2.80787 7.62355 2.59009C7.72689 2.3723 7.87228 2.17711 8.05136 2.01575C8.1712 1.91685 8.30967 1.843 8.45856 1.79858C8.60746 1.75416 8.76376 1.74007 8.91819 1.75715C9.56099 1.82891 10.1561 2.47214 10.0498 3.56345C10.0157 4.10942 9.77155 4.62099 9.36846 4.99081C9.17527 5.15492 8.93098 5.24666 8.67753 5.25029ZM10.9603 7.87572C10.1351 7.87572 9.72333 6.92794 9.81609 5.91015C9.83449 5.43121 10.035 4.97734 10.3766 4.64119C10.485 4.54288 10.6131 4.46885 10.7524 4.42402C10.8917 4.3792 11.039 4.36462 11.1844 4.38127C11.783 4.45303 12.3374 5.09626 12.2385 6.18757C12.2107 6.72551 11.9845 7.23406 11.6036 7.61493C11.4284 7.77776 11.1995 7.87056 10.9603 7.87572ZM8.74929 12.2514C8.37532 12.2588 8.00601 12.1675 7.67855 11.9867C7.46904 11.8763 7.2358 11.8187 6.999 11.8187C6.7622 11.8187 6.52896 11.8763 6.31945 11.9867C5.00105 12.7249 3.46429 11.9132 3.49842 10.0636C3.49842 8.035 5.47056 6.12543 6.999 6.12543C8.52744 6.12543 10.4996 8.035 10.4996 10.0636C10.4996 11.3518 9.77977 12.2514 8.74929 12.2514Z" fill="#ADB5BD"/>
</svg>
