<svg width="24" height="24" viewBox="0 0 24 24" fill="none" xmlns="http://www.w3.org/2000/svg">
<path d="M8.75422 21C8.65553 21.0006 8.5577 20.9816 8.46634 20.9443C8.37498 20.907 8.29188 20.852 8.22181 20.7825C8.15153 20.7128 8.09574 20.6299 8.05767 20.5385C8.0196 20.4471 8 20.3491 8 20.2501C8 20.1511 8.0196 20.0531 8.05767 19.9617C8.09574 19.8704 8.15153 19.7874 8.22181 19.7177L14.3483 13.5913C14.7695 13.1695 15.0062 12.5977 15.0062 12.0015C15.0062 11.4054 14.7695 10.8336 14.3483 10.4118L8.22181 4.28535C8.08061 4.14415 8.00128 3.95263 8.00128 3.75294C8.00128 3.55325 8.08061 3.36173 8.22181 3.22053C8.36301 3.07933 8.55453 3 8.75422 3C8.95391 3 9.14542 3.07933 9.28663 3.22053L15.4131 9.34698C15.7622 9.69526 16.0393 10.109 16.2283 10.5645C16.4173 11.02 16.5146 11.5084 16.5146 12.0015C16.5146 12.4947 16.4173 12.983 16.2283 13.4385C16.0393 13.894 15.7622 14.3078 15.4131 14.6561L9.28663 20.7825C9.21656 20.852 9.13346 20.907 9.0421 20.9443C8.95074 20.9816 8.85291 21.0006 8.75422 21Z" fill="#858E96"/>
</svg>
