<svg width="24" height="24" viewBox="0 0 24 24" fill="none" xmlns="http://www.w3.org/2000/svg">
<path d="M20.378 12.2159C20.378 11.6081 20.3201 10.9806 20.2235 10.3924H11.8614V13.8629H16.6519C16.4587 14.9805 15.8213 15.9609 14.8748 16.5884L17.7336 18.8432C19.4141 17.255 20.3799 14.9413 20.3799 12.2159H20.378Z" fill="#4280EF"/>
<path d="M11.8614 21C14.2566 21 16.2655 20.1961 17.7336 18.8236L14.8748 16.5883C14.0828 17.1373 13.059 17.4511 11.8614 17.4511C9.54342 17.4511 7.59246 15.8628 6.87775 13.7452L3.94165 16.0393C5.44833 19.0785 8.50033 21 11.8614 21Z" fill="#34A353"/>
<path d="M6.87584 13.7257C6.50883 12.608 6.50883 11.3924 6.87584 10.2747L3.94168 7.96106C2.68611 10.51 2.68611 13.51 3.94168 16.0393L6.87777 13.7257H6.87584Z" fill="#F6B704"/>
<path d="M11.8614 6.5689C13.117 6.5493 14.3532 7.03948 15.2611 7.92182L17.7915 5.33363C16.1883 3.80425 14.0635 2.98073 11.8614 3.00034C8.4984 3.00034 5.4464 4.92188 3.94165 7.96104L6.87775 10.2747C7.59246 8.1375 9.54342 6.5689 11.8614 6.5689V6.5689Z" fill="#E54335"/>
</svg>
