<svg width="20" height="20" viewBox="0 0 20 20" fill="none" xmlns="http://www.w3.org/2000/svg">
<g id="icon/angle-small-down">
<path id="Vector" d="M14.7923 7.71126C14.7259 7.64432 14.6469 7.59119 14.5599 7.55493C14.4729 7.51867 14.3795 7.5 14.2852 7.5C14.1909 7.5 14.0976 7.51867 14.0106 7.55493C13.9235 7.59119 13.8445 7.64432 13.7781 7.71126L10.5071 10.9823C10.4407 11.0493 10.3617 11.1024 10.2747 11.1387C10.1876 11.1749 10.0943 11.1936 10 11.1936C9.90572 11.1936 9.81237 11.1749 9.72533 11.1387C9.6383 11.1024 9.55931 11.0493 9.49291 10.9823L6.22186 7.71126C6.15546 7.64432 6.07647 7.59119 5.98944 7.55493C5.9024 7.51867 5.80905 7.5 5.71477 7.5C5.62049 7.5 5.52714 7.51867 5.4401 7.55493C5.35307 7.59119 5.27408 7.64432 5.20769 7.71126C5.07466 7.84508 5 8.02609 5 8.21477C5 8.40346 5.07466 8.58447 5.20769 8.71829L8.48589 11.9965C8.88763 12.3977 9.4322 12.6231 10 12.6231C10.5678 12.6231 11.1124 12.3977 11.5141 11.9965L14.7923 8.71829C14.9253 8.58447 15 8.40346 15 8.21477C15 8.02609 14.9253 7.84508 14.7923 7.71126Z" fill="#858E96"/>
</g>
</svg>
