<svg width="160" height="59" viewBox="0 0 160 59" fill="none" xmlns="http://www.w3.org/2000/svg">
<g clip-path="url(#clip0_105_1858)">
<path d="M80.007 58.0392C35.1413 58.0392 0 45.2878 0 29.0196C0 12.7515 35.1413 0 80.007 0C124.873 0 160.014 12.7515 160.014 29.0196C160.014 45.2878 124.873 58.0392 80.007 58.0392ZM80.007 2.76905C38.1462 2.76905 2.78237 14.7867 2.78237 29.0196C2.78237 43.2525 38.1462 55.2702 80.007 55.2702C121.868 55.2702 157.232 43.2525 157.232 29.0196C157.232 14.7867 121.868 2.76905 80.007 2.76905Z" fill="#486FFA"/>
<path d="M32.9293 37.2853C32.0111 37.2853 31.2738 37.2299 30.7173 37.1053C30.1608 36.9807 29.7157 36.773 29.3957 36.4685C29.0757 36.1639 28.867 35.7347 28.7557 35.1947C28.6445 34.6547 28.5888 33.9486 28.5888 33.0764V20.7264H40.2608V33.0764C40.2608 33.9486 40.2052 34.6409 40.0939 35.1947C39.9826 35.7347 39.7739 36.1639 39.4539 36.4685C39.134 36.773 38.7027 36.9946 38.1323 37.1053C37.5759 37.2161 36.8246 37.2853 35.9203 37.2853H32.9293ZM35.9482 35.2085C36.4212 35.2085 36.7968 35.1808 37.0889 35.1116C37.3672 35.0424 37.5898 34.9316 37.7289 34.7655C37.868 34.5993 37.9654 34.3778 38.021 34.1148C38.0767 33.8517 38.0906 33.5056 38.0906 33.0764V22.8032H30.7869V33.0764C30.7869 33.5056 30.8147 33.8517 30.8564 34.1148C30.8982 34.3778 30.9956 34.5993 31.1486 34.7655C31.2877 34.9316 31.5103 35.0424 31.7885 35.1116C32.0807 35.1808 32.4563 35.2085 32.9293 35.2085H35.9621H35.9482ZM45.6725 20.2695V27.3444H48.4271V29.4212H45.6725V37.7561H43.4884V20.2695H45.6725Z" fill="#486FFA"/>
<path d="M45.8395 37.9359H43.3075V20.1033H45.8395V27.1782H48.594V29.6011H45.8395V37.9359ZM43.6553 37.5898H45.4917V29.255H48.2462V27.5243H45.4917V20.4494H43.6553V37.5898ZM35.9203 37.4652H32.9293C31.9972 37.4652 31.246 37.4098 30.6756 37.2852C30.0774 37.1606 29.6183 36.9252 29.2705 36.6068C28.9227 36.2745 28.7001 35.8176 28.5749 35.2361C28.4636 34.6823 28.408 33.9623 28.408 33.0901V20.574H40.4278V33.0901C40.4278 33.9623 40.3721 34.6823 40.2608 35.2361C40.1495 35.8176 39.913 36.2745 39.5653 36.6068C39.2314 36.9391 38.7584 37.1606 38.1602 37.2852C37.5898 37.4098 36.8246 37.4652 35.9064 37.4652H35.9203ZM28.7697 20.9201V33.0901C28.7697 33.9347 28.8253 34.6408 28.9366 35.1669C29.034 35.6653 29.2427 36.0668 29.5209 36.3576C29.8131 36.6345 30.2304 36.8422 30.7451 36.9529C31.2877 37.0637 32.025 37.1191 32.9293 37.1191H35.9203C36.8246 37.1191 37.548 37.0637 38.1045 36.9529C38.6332 36.8422 39.0505 36.6483 39.3287 36.3576C39.6209 36.0807 39.8157 35.6792 39.913 35.1669C40.0243 34.6408 40.08 33.9347 40.08 33.0901V20.9201H28.7558H28.7697ZM35.9482 35.3884H32.9154C32.4285 35.3884 32.0389 35.3607 31.7329 35.2915C31.4129 35.2223 31.1625 35.0838 30.9956 34.89C30.8286 34.6961 30.7173 34.4608 30.6756 34.1562C30.6199 33.8793 30.606 33.5331 30.606 33.0901V22.6508H38.2575V33.0901C38.2575 33.5331 38.2297 33.8793 38.188 34.1562C38.1323 34.4469 38.021 34.6961 37.868 34.89C37.7011 35.0838 37.4507 35.2223 37.1307 35.2915C36.8385 35.3607 36.4351 35.3884 35.9482 35.3884ZM30.9538 22.9969V33.0901C30.9538 33.5055 30.9816 33.8516 31.0234 34.1008C31.0651 34.3362 31.1486 34.53 31.2738 34.6685C31.3851 34.8069 31.5799 34.9038 31.8164 34.9592C32.0946 35.0146 32.4563 35.0561 32.9154 35.0561H35.9482C36.4073 35.0561 36.7829 35.0284 37.0472 34.9592C37.2976 34.9038 37.4785 34.8069 37.5898 34.6685C37.715 34.53 37.7984 34.3362 37.8402 34.1008C37.8819 33.8516 37.9097 33.5055 37.9097 33.0901V22.9969H30.9538Z" fill="#486FFA"/>
<path d="M52.6424 31.8165C52.6424 32.6056 52.7397 33.2287 52.9345 33.6994C53.1293 34.1701 53.4075 34.5301 53.7692 34.7793C54.1309 35.0286 54.5344 35.1947 55.0074 35.2916C55.4804 35.3885 55.9812 35.4162 56.5377 35.4162C57.0941 35.4162 57.5672 35.3747 58.0262 35.2916C58.4714 35.2085 58.861 35.0424 59.1948 34.7793C59.5148 34.5301 59.7652 34.1701 59.9461 33.6994C60.113 33.2287 60.2104 32.5918 60.2104 31.8165V23.5509H62.3946V32.0657C62.3946 33.1456 62.2415 34.0455 61.9355 34.7516C61.6294 35.4578 61.2121 36.0116 60.6973 36.4131C60.1826 36.8146 59.5565 37.0915 58.847 37.2576C58.1375 37.4099 57.3724 37.493 56.5655 37.493C55.7586 37.493 54.9935 37.4099 54.2561 37.2576C53.5188 37.1053 52.8789 36.8146 52.3224 36.4131C51.7659 36.0116 51.3207 35.4578 51.0008 34.7516C50.6669 34.0455 50.4999 33.1456 50.4999 32.0657V26.1676C50.4999 25.0877 50.653 24.1877 50.959 23.4816C51.2651 22.7755 51.6824 22.2217 52.2111 21.8202C52.7397 21.4187 53.3519 21.1418 54.0614 20.9756C54.7709 20.8233 55.536 20.7403 56.3429 20.7403H62.645V22.8171H56.3429C55.7864 22.8171 55.2856 22.8586 54.8543 22.9417C54.4092 23.0247 54.0335 23.2047 53.6997 23.4539C53.3797 23.7031 53.1293 24.077 52.9484 24.5477C52.7815 25.0323 52.6841 25.6553 52.6841 26.4307V31.8165H52.6424ZM68.2514 20.2695V37.7561H66.0673V20.2695H68.2514Z" fill="#486FFA"/>
<path d="M68.4184 37.9359H65.8864V20.1033H68.4184V37.9359ZM66.2342 37.5898H68.0706V20.4494H66.2342V37.5898ZM56.5238 37.6729C55.7169 37.6729 54.9239 37.5898 54.1727 37.4375C53.4214 37.2714 52.7397 36.9806 52.1694 36.5653C51.599 36.1499 51.126 35.5684 50.7921 34.8346C50.4443 34.1146 50.2773 33.1732 50.2773 32.0656V26.1675C50.2773 25.0599 50.4443 24.1322 50.7503 23.4123C51.0703 22.6785 51.5016 22.097 52.0441 21.6816C52.5867 21.2663 53.2267 20.9755 53.964 20.8094C54.6874 20.6432 55.4665 20.574 56.2733 20.574H62.7563V22.9969H56.2733C55.7308 22.9969 55.2439 23.0385 54.8126 23.1215C54.3952 23.2046 54.0335 23.3569 53.7414 23.5923C53.4492 23.8276 53.2127 24.1599 53.0458 24.6168C52.8789 25.0737 52.7954 25.6829 52.7954 26.4305V31.8163C52.7954 32.5778 52.8928 33.187 53.0736 33.6439C53.2545 34.087 53.5188 34.4192 53.8388 34.6546C54.1727 34.89 54.5622 35.0561 55.0074 35.1392C55.8977 35.3053 57.0663 35.3053 57.9567 35.1392C58.374 35.0561 58.7496 34.9038 59.0418 34.6685C59.3339 34.4331 59.5704 34.1008 59.7374 33.6578C59.9043 33.2009 59.9878 32.5917 59.9878 31.8302V23.3984H62.5198V32.0932C62.5198 33.2009 62.3528 34.1285 62.0468 34.8484C61.7268 35.5822 61.2955 36.1637 60.753 36.5791C60.2104 36.9945 59.5704 37.2852 58.8331 37.4513C58.1097 37.6175 57.3306 37.6867 56.5238 37.6867V37.6729ZM56.2873 20.9201C55.4943 20.9201 54.743 21.0032 54.0474 21.1555C53.3658 21.3078 52.7676 21.5847 52.2667 21.9585C51.7659 22.3462 51.3625 22.8723 51.0703 23.5507C50.7782 24.2292 50.6251 25.1152 50.6251 26.1675V32.0656C50.6251 33.1178 50.7921 34.0039 51.1121 34.6823C51.432 35.3607 51.8633 35.9007 52.378 36.2745C52.9067 36.6622 53.5327 36.9252 54.2422 37.0775C55.689 37.3821 57.3585 37.3821 58.7636 37.0775C59.4452 36.9252 60.0435 36.6483 60.5443 36.2745C61.0451 35.8868 61.4346 35.3607 61.7407 34.6823C62.0328 34.0039 62.1859 33.1178 62.1859 32.0656V23.7169H60.3495V31.8025C60.3495 32.6055 60.2521 33.2562 60.0713 33.7547C59.8904 34.2531 59.6122 34.6408 59.2644 34.9177C58.9166 35.1807 58.4992 35.3607 58.0262 35.4576C57.0941 35.6376 55.8838 35.6238 54.9517 35.4576C54.4648 35.3607 54.0196 35.1807 53.644 34.9177C53.2684 34.6546 52.9623 34.2531 52.7536 33.7547C52.545 33.2562 52.4476 32.6055 52.4476 31.8025V26.4167C52.4476 25.6275 52.545 24.9768 52.7119 24.4784C52.8928 23.9661 53.171 23.5784 53.5188 23.3015C53.8666 23.0385 54.27 22.8585 54.743 22.7616C55.1882 22.6785 55.703 22.6231 56.2733 22.6231H62.4085V20.8924H56.2733L56.2873 20.9201Z" fill="#486FFA"/>
<path d="M73.4545 26.6935H80.7582V20.7401H82.9424V33.09C82.9424 33.9623 82.8867 34.6546 82.7754 35.2084C82.6641 35.7483 82.4554 36.1775 82.1355 36.4821C81.8155 36.7867 81.3842 37.0082 80.8138 37.119C80.2574 37.2298 79.5061 37.299 78.6019 37.299H75.6108C74.6926 37.299 73.9553 37.2436 73.3988 37.119C72.8424 36.9944 72.3972 36.7867 72.0772 36.4821C71.7572 36.1775 71.5486 35.7483 71.4373 35.2084C71.326 34.6684 71.2703 33.9623 71.2703 33.09V20.7401H73.4545V26.6935ZM80.7582 28.7703H73.4545V33.09C73.4545 33.5192 73.4823 33.8654 73.524 34.1284C73.5658 34.3915 73.6632 34.613 73.8162 34.7792C73.9553 34.9453 74.1779 35.0561 74.4561 35.1253C74.7483 35.1945 75.1239 35.2222 75.5969 35.2222H78.6297C79.1027 35.2222 79.4783 35.1945 79.7705 35.1253C80.0487 35.0561 80.2713 34.9453 80.4104 34.7792C80.5495 34.613 80.6469 34.3915 80.7025 34.1284C80.7582 33.8654 80.7721 33.5192 80.7721 33.09V28.7703H80.7582ZM83.8605 27.3581H86.8794V20.2832H89.0636V37.7697H86.8794V29.4349H83.8605V27.3581Z" fill="#486FFA"/>
<path d="M89.2444 37.9359H86.7125V29.6011H83.6936V27.1782H86.7125V20.1033H89.2444V37.9359ZM87.0603 37.5898H88.8966V20.4494H87.0603V27.5243H84.0414V29.255H87.0603V37.5898ZM78.6019 37.4652H75.6108C74.6787 37.4652 73.9275 37.4098 73.3571 37.2852C72.7589 37.1606 72.2998 36.9252 71.952 36.6068C71.6042 36.2745 71.3816 35.8176 71.2564 35.2361C71.1451 34.6823 71.0895 33.9623 71.0895 33.0901V20.574H73.6214V26.5275H80.5773V20.574H83.1093V33.0901C83.1093 33.9623 83.0537 34.6823 82.9424 35.2361C82.8311 35.8176 82.5946 36.2745 82.2468 36.6068C81.9129 36.9391 81.4399 37.1606 80.8417 37.2852C80.2713 37.4098 79.5061 37.4652 78.588 37.4652H78.6019ZM71.4512 20.9201V33.0901C71.4512 33.9347 71.5068 34.6408 71.6181 35.1669C71.7155 35.6653 71.9242 36.0668 72.2024 36.3576C72.4946 36.6345 72.9119 36.8422 73.4267 36.9529C73.9692 37.0637 74.7066 37.1191 75.6108 37.1191H78.6019C79.5061 37.1191 80.2296 37.0637 80.786 36.9529C81.3147 36.8422 81.732 36.6483 82.0103 36.3576C82.3024 36.0807 82.4972 35.6792 82.5946 35.1669C82.7059 34.6408 82.7615 33.9347 82.7615 33.0901V20.9201H80.9251V26.8736H73.2736V20.9201H71.4373H71.4512ZM78.6297 35.3884H75.5969C75.11 35.3884 74.7205 35.3607 74.4144 35.2915C74.0944 35.2223 73.844 35.0838 73.6771 34.89C73.5101 34.6961 73.3988 34.4608 73.3571 34.1562C73.3015 33.8793 73.2875 33.5331 73.2875 33.0901V28.6042H80.9391V33.0901C80.9391 33.5331 80.9112 33.8793 80.8695 34.1562C80.8139 34.4469 80.7026 34.6961 80.5495 34.89C80.3826 35.0838 80.1322 35.2223 79.8122 35.2915C79.52 35.3607 79.1166 35.3884 78.6297 35.3884ZM73.6353 28.9504V33.0901C73.6353 33.5055 73.6632 33.8516 73.7049 34.1008C73.7466 34.3362 73.8301 34.53 73.9553 34.6685C74.0666 34.8069 74.2614 34.9038 74.4979 34.9592C74.7761 35.0146 75.1378 35.0561 75.5969 35.0561H78.6297C79.0888 35.0561 79.4644 35.0284 79.7287 34.9592C79.9791 34.9038 80.16 34.8069 80.2713 34.6685C80.3965 34.53 80.48 34.3362 80.5217 34.1008C80.5634 33.8516 80.5913 33.5055 80.5913 33.0901V28.9504H73.6353Z" fill="#486FFA"/>
<path d="M92.0963 20.7403H99.6644C100.583 20.7403 101.32 20.7956 101.876 20.9203C102.433 21.0449 102.878 21.2525 103.198 21.5571C103.518 21.8617 103.727 22.2909 103.838 22.8309C103.949 23.3709 104.005 24.077 104.005 24.9492V30.4458H101.821V27.5383H92.0963V25.4615H101.821V24.9354C101.821 24.5062 101.793 24.16 101.751 23.897C101.709 23.6339 101.612 23.4124 101.473 23.2463C101.334 23.0801 101.111 22.9694 100.833 22.9001C100.555 22.8309 100.165 22.8032 99.6922 22.8032H92.0963V20.7264V20.7403ZM99.6365 33.6302C99.1914 33.6302 98.8296 33.644 98.5514 33.6856C98.2732 33.7271 98.0367 33.7963 97.8419 33.9209C97.6471 34.0455 97.4663 34.2117 97.2993 34.4332C97.1324 34.6547 96.9376 34.9593 96.7011 35.3331L95.2126 37.7699H92.8197L94.6144 34.8624C95.0317 34.1978 95.3934 33.6579 95.7134 33.2287C96.0334 32.7995 96.3812 32.4672 96.729 32.2318C97.0907 31.9964 97.4941 31.8303 97.9532 31.7334C98.4123 31.6365 98.9827 31.5949 99.6644 31.5949H103.532C104.214 31.5949 104.784 31.6365 105.243 31.7334C105.702 31.8303 106.106 31.9964 106.467 32.2318C106.829 32.4672 107.163 32.7995 107.483 33.2287C107.803 33.6579 108.178 34.1978 108.582 34.8624L110.39 37.7699H107.998L106.509 35.3331C106.272 34.9593 106.064 34.6547 105.911 34.4332C105.758 34.2117 105.563 34.0455 105.368 33.9209C105.173 33.7963 104.937 33.7271 104.659 33.6856C104.38 33.644 104.019 33.6302 103.574 33.6302H99.6644H99.6365ZM109.876 20.2695V31.3873H107.691V20.2695H109.876Z" fill="#486FFA"/>
<path d="M110.696 37.9359H107.886L106.342 35.4161C106.106 35.0423 105.911 34.7515 105.744 34.53C105.591 34.3223 105.424 34.17 105.243 34.0731C105.062 33.9623 104.853 33.8931 104.603 33.8654C104.339 33.8239 103.977 33.8101 103.546 33.8101H99.6365C99.2053 33.8101 98.8575 33.8239 98.5792 33.8654C98.3288 33.907 98.1062 33.9762 97.9393 34.0731C97.7584 34.1839 97.5915 34.3362 97.4385 34.53C97.2715 34.7515 97.0768 35.0561 96.8403 35.4161L95.296 37.9359H92.4859L94.4474 34.7654C94.8648 34.1008 95.2265 33.547 95.5604 33.1178C95.8943 32.6747 96.256 32.3286 96.6177 32.0932C96.9794 31.8579 97.4246 31.664 97.8976 31.5671C98.3706 31.4702 98.9549 31.4287 99.6365 31.4287H103.504C104.186 31.4287 104.784 31.4841 105.243 31.5671C105.716 31.664 106.147 31.844 106.523 32.0932C106.899 32.3425 107.246 32.6886 107.58 33.1316C107.9 33.5608 108.276 34.1008 108.693 34.7792L110.655 37.9498L110.696 37.9359ZM108.081 37.5898H110.07L108.429 34.9454C108.011 34.2808 107.65 33.7547 107.33 33.3255C107.024 32.924 106.69 32.5917 106.356 32.3701C106.022 32.1486 105.633 31.9963 105.201 31.8994C104.756 31.8025 104.186 31.761 103.532 31.761H99.6644C98.9966 31.761 98.4401 31.8025 97.9949 31.8994C97.5637 31.9825 97.1741 32.1486 96.8403 32.3701C96.5064 32.5917 96.1725 32.9101 95.8664 33.3255C95.5465 33.7408 95.1708 34.2946 94.7674 34.9454L93.1258 37.5898H95.1152L96.562 35.2361C96.7985 34.8623 97.0072 34.5577 97.1741 34.3223C97.355 34.087 97.5498 33.8931 97.7723 33.7685C97.9949 33.6439 98.2453 33.547 98.5514 33.5055C98.8436 33.4639 99.2053 33.4501 99.6504 33.4501H103.56C104.005 33.4501 104.38 33.4639 104.659 33.5055C104.965 33.547 105.215 33.6301 105.438 33.7685C105.66 33.8931 105.855 34.087 106.036 34.3223C106.203 34.5438 106.398 34.8484 106.648 35.2361L108.095 37.5898H108.081ZM110.056 31.5671H107.525V20.1033H110.056V31.5671ZM107.872 31.221H109.709V20.4494H107.872V31.221ZM104.172 30.6256H101.64V27.7181H91.9155V25.2952H101.64V24.9491C101.64 24.5337 101.612 24.2015 101.57 23.9384C101.529 23.703 101.445 23.5092 101.32 23.3707C101.209 23.2323 101.014 23.1354 100.777 23.08C100.499 23.0246 100.137 22.9831 99.6783 22.9831H91.9155V20.5602H99.6504C100.569 20.5602 101.334 20.6155 101.904 20.7402C102.502 20.8648 102.961 21.1001 103.309 21.4186C103.643 21.7509 103.88 22.2077 104.005 22.7754C104.116 23.3292 104.172 24.0492 104.172 24.9214V30.598V30.6256ZM101.988 30.2795H103.824V24.9491C103.824 24.1045 103.768 23.3984 103.657 22.8723C103.56 22.36 103.351 21.9724 103.059 21.6816C102.767 21.4047 102.349 21.197 101.835 21.0863C101.292 20.9755 100.555 20.9201 99.6504 20.9201H92.2633V22.6508H99.6783C100.165 22.6508 100.555 22.6785 100.861 22.7477C101.181 22.8169 101.431 22.9554 101.598 23.1492C101.765 23.3292 101.862 23.5784 101.918 23.883C101.974 24.1599 101.988 24.5199 101.988 24.9491V25.6414H92.2633V27.372H101.988V30.2795Z" fill="#486FFA"/>
<path d="M112.658 20.7403H123.384V22.7201H121.729V28.2167H123.384V30.1966H112.658V28.2167H114.314V22.7201H112.658V20.7403ZM120.671 33.6302C120.226 33.6302 119.864 33.644 119.586 33.6856C119.308 33.7271 119.071 33.7963 118.877 33.9209C118.682 34.0455 118.501 34.2117 118.334 34.4332C118.167 34.6547 117.972 34.9593 117.736 35.3331L116.247 37.7699H113.854L115.649 34.8624C116.066 34.1978 116.428 33.6579 116.748 33.2287C117.068 32.7995 117.416 32.4672 117.764 32.2318C118.125 31.9964 118.529 31.8303 118.988 31.7334C119.447 31.6365 120.017 31.5949 120.699 31.5949H124.567C125.248 31.5949 125.819 31.6365 126.278 31.7334C126.737 31.8303 127.14 31.9964 127.502 32.2318C127.864 32.4672 128.198 32.7995 128.518 33.2287C128.837 33.6579 129.213 34.1978 129.617 34.8624L131.425 37.7699H129.032L127.544 35.3331C127.307 34.9593 127.098 34.6547 126.945 34.4332C126.792 34.2117 126.598 34.0455 126.403 33.9209C126.208 33.7963 125.972 33.7271 125.693 33.6856C125.415 33.644 125.053 33.6302 124.608 33.6302H120.699H120.671ZM116.498 28.2305H119.53V22.734H116.498V28.2305ZM122.647 24.2846H124.942V20.5049H127.126V30.4458H124.942V26.3614H122.647V24.2846ZM130.924 20.2695V31.6226H128.74V20.2695H130.924Z" fill="#486FFA"/>
<path d="M131.731 37.9359H128.921L127.377 35.4161C127.14 35.0423 126.945 34.7515 126.779 34.53C126.626 34.3223 126.459 34.17 126.278 34.0731C126.097 33.9623 125.888 33.8931 125.638 33.8654C125.373 33.8239 125.012 33.8101 124.58 33.8101H120.671C120.24 33.8101 119.892 33.8239 119.614 33.8654C119.364 33.907 119.141 33.9762 118.974 34.0731C118.793 34.1839 118.626 34.3362 118.473 34.53C118.306 34.7515 118.111 35.0561 117.875 35.4161L116.331 37.9359H113.521L115.482 34.7654C115.899 34.1008 116.261 33.547 116.595 33.1178C116.929 32.6747 117.291 32.3286 117.652 32.0932C118.014 31.8579 118.459 31.664 118.932 31.5671C119.405 31.4702 119.99 31.4287 120.671 31.4287H124.539C125.22 31.4287 125.819 31.4841 126.278 31.5671C126.751 31.664 127.182 31.844 127.558 32.0932C127.933 32.3425 128.281 32.6886 128.615 33.1316C128.935 33.5608 129.31 34.1008 129.728 34.7792L131.689 37.9498L131.731 37.9359ZM129.116 37.5898H131.105L129.464 34.9454C129.046 34.2808 128.684 33.7547 128.364 33.3255C128.058 32.924 127.725 32.5917 127.391 32.3701C127.057 32.1486 126.667 31.9963 126.236 31.8994C125.791 31.8025 125.22 31.761 124.567 31.761H120.699C120.031 31.761 119.475 31.8025 119.03 31.8994C118.598 31.9825 118.209 32.1486 117.875 32.3701C117.541 32.5917 117.207 32.9101 116.901 33.3255C116.581 33.7408 116.206 34.2946 115.802 34.9454L114.161 37.5898H116.15L117.597 35.2361C117.833 34.8623 118.042 34.5577 118.209 34.3223C118.39 34.087 118.584 33.8931 118.807 33.7685C119.03 33.6439 119.28 33.547 119.586 33.5055C119.878 33.4639 120.24 33.4501 120.685 33.4501H124.594C125.04 33.4501 125.415 33.4639 125.693 33.5055C125.999 33.547 126.25 33.6301 126.472 33.7685C126.695 33.8931 126.89 34.087 127.071 34.3223C127.238 34.5438 127.432 34.8484 127.683 35.2361L129.13 37.5898H129.116ZM131.091 31.8025H128.559V20.1033H131.091V31.8025ZM128.907 31.4564H130.743V20.4494H128.907V31.4564ZM127.293 30.6256H124.761V26.5413H122.466V24.1184H124.761V20.3386H127.293V30.6256ZM125.109 30.2795H126.945V20.6848H125.109V24.4645H122.814V26.1952H125.109V30.2795ZM123.551 30.3903H112.477V28.0643H114.133V22.9139H112.477V20.5879H123.551V22.9139H121.895V28.0643H123.551V30.3903ZM112.825 30.0441H123.203V28.4104H121.548V22.5677H123.203V20.934H112.825V22.5677H114.48V28.4104H112.825V30.0441ZM119.697 28.4104H116.317V22.5677H119.697V28.4104ZM116.665 28.0643H119.35V22.9139H116.665V28.0643Z" fill="#486FFA"/>
</g>
<defs>
<clipPath id="clip0_105_1858">
<rect width="160" height="58.0392" fill="white"/>
</clipPath>
</defs>
</svg>
